<?xml version="1.0" encoding="UTF-8" standalone="no"?>
<svg
   xmlns:dc="http://purl.org/dc/elements/1.1/"
   xmlns:cc="http://creativecommons.org/ns#"
   xmlns:rdf="http://www.w3.org/1999/02/22-rdf-syntax-ns#"
   xmlns:svg="http://www.w3.org/2000/svg"
   xmlns="http://www.w3.org/2000/svg"
   viewBox="0 0 480 480"
   height="480"
   width="480"
   xml:space="preserve"
   id="svg2"
   version="1.1"><metadata
     id="metadata8"><rdf:RDF><cc:Work
         rdf:about=""><dc:format>image/svg+xml</dc:format><dc:type
           rdf:resource="http://purl.org/dc/dcmitype/StillImage" /></cc:Work></rdf:RDF></metadata><defs
     id="defs6"><clipPath
       id="clipPath18"
       clipPathUnits="userSpaceOnUse"><path
         id="path16"
         d="M 0,360 H 360 V 0 H 0 Z" /></clipPath></defs><g
     transform="matrix(1.3333333,0,0,-1.3333333,0,480)"
     id="g10"><g
       id="g12"><g
         clip-path="url(#clipPath18)"
         id="g14"><g
           transform="translate(154.659,233.165)"
           id="g20"><path
             id="path22"
             style="fill:#231f20;fill-opacity:1;fill-rule:nonzero;stroke:none"
             d="m 0,0 v 0 c -23.177,0 -42.886,-14.832 -50.163,-35.521 -1.942,-5.522 -3.002,-11.459 -3.002,-17.644 v 0 c 0,-6.186 1.06,-12.123 3.002,-17.645 7.277,-20.689 26.986,-35.521 50.163,-35.521 v 0 25.767 c 0,7.619 -6.176,13.795 -13.795,13.795 H -35.47 c -7.467,0 -13.634,5.998 -13.654,13.465 -10e-4,0.046 -10e-4,0.092 -10e-4,0.139 0,0.046 0,0.092 10e-4,0.139 0.02,7.467 6.187,13.464 13.654,13.464 h 21.675 c 7.619,0 13.795,6.176 13.795,13.795 z" /></g><g
           transform="translate(206.583,233.165)"
           id="g24"><path
             id="path26"
             style="fill:#231f20;fill-opacity:1;fill-rule:nonzero;stroke:none"
             d="m 0,0 v 0 c -23.177,0 -42.886,-14.832 -50.163,-35.521 -1.942,-5.522 -3.002,-11.459 -3.002,-17.644 v 0 c 0,-6.186 1.06,-12.123 3.002,-17.645 7.277,-20.689 26.986,-35.521 50.163,-35.521 v 0 25.767 c 0,7.619 -6.176,13.795 -13.795,13.795 H -35.47 c -7.467,0 -13.634,5.998 -13.654,13.465 -10e-4,0.046 -10e-4,0.092 -10e-4,0.139 0,0.046 0,0.092 10e-4,0.139 0.02,7.467 6.187,13.464 13.654,13.464 h 21.675 c 7.619,0 13.795,6.176 13.795,13.795 z" /></g><g
           transform="translate(258.507,233.165)"
           id="g28"><path
             id="path30"
             style="fill:#231f20;fill-opacity:1;fill-rule:nonzero;stroke:none"
             d="m 0,0 v 0 c -23.177,0 -42.886,-14.832 -50.163,-35.521 -1.942,-5.522 -3.002,-11.459 -3.002,-17.644 v 0 c 0,-6.186 1.06,-12.123 3.002,-17.645 7.277,-20.689 26.986,-35.521 50.163,-35.521 v 0 25.767 c 0,7.619 -6.176,13.795 -13.795,13.795 H -35.47 c -7.467,0 -13.634,5.998 -13.654,13.465 -10e-4,0.046 -10e-4,0.092 -10e-4,0.139 0,0.046 0,0.092 10e-4,0.139 0.02,7.467 6.187,13.464 13.654,13.464 h 21.675 c 7.619,0 13.795,6.176 13.795,13.795 z" /></g></g></g></g></svg>